<?xml version="1.0" encoding="utf-8"?>
<!-- Generator: Adobe Illustrator 18.1.1, SVG Export Plug-In . SVG Version: 6.00 Build 0)  -->
<svg version="1.1" id="Layer_1" xmlns:sketch="http://www.bohemiancoding.com/sketch/ns"
	 xmlns="http://www.w3.org/2000/svg" xmlns:xlink="http://www.w3.org/1999/xlink" x="0px" y="0px" viewBox="76.5 90 497.2 612"
	 enable-background="new 76.5 90 497.2 612" xml:space="preserve">
<g sketch:type="MSPage">
	<path sketch:type="MSShapeGroup" d="M478.1,702c52.8,0,95.6-42.8,95.6-95.6s-42.8-95.6-95.6-95.6s-95.6,42.8-95.6,95.6
		S425.3,702,478.1,702z M497.2,549H459v38.2h-38.2v38.2H459v38.2h38.2v-38.2h38.2v-38.2h-38.2V549z M535.5,223.9L401.6,90H95.5
		c0,0-19,0-19,19.1v573.8c0,0,0,19.1,19.2,19.1h319c-14.7-9.8-27.1-22.9-36-38.3l-264,0V128.2h267.8v95.6c0,0,0,19.1,19.1,19.1h95.6
		v250.2c13.7,2.3,26.6,7,38.2,13.8V223.9z"/>
</g>
<line fill="none" stroke="#FFFFFF" stroke-width="36" stroke-miterlimit="10" x1="420.8" y1="606.4" x2="535.5" y2="606.4"/>
<line fill="none" stroke="#FFFFFF" stroke-width="36" stroke-miterlimit="10" x1="478.1" y1="549" x2="478.1" y2="663.8"/>
</svg>
