<svg xmlns="http://www.w3.org/2000/svg" xmlns:xlink="http://www.w3.org/1999/xlink" xmlns:sketch="http://www.bohemiancoding.com/sketch/ns" viewBox="0 0 32 32" version="1.1" x="0px" y="0px"><title>file_text_document_page_paper_new_empty_add_plus</title><desc>Created with Sketch.</desc><g stroke="none" stroke-width="1" fill="none" fill-rule="evenodd" sketch:type="MSPage"><path d="M25,32 C27.7614237,32 30,29.7614237 30,27 C30,24.2385763 27.7614237,22 25,22 C22.2385763,22 20,24.2385763 20,27 C20,29.7614237 22.2385763,32 25,32 Z M26,24 L24,24 L24,26 L22,26 L22,28 L24,28 L24,30 L26,30 L26,28 L28,28 L28,26 L26,26 L26,24 Z M28,7 L21,0 L4.99339768,0 C4.99339768,0 4,0 4,1 L4,31 C4,31 4,32 5.00329963,32 L21.6822049,32 C20.9119535,31.4878691 20.2668165,30.8025019 19.8024159,29.9995206 L6,30 L6,2 L20,2 L20,7 C20,7 20,8 21,8 L26,8 L26,21.0829584 C26.7179235,21.2034032 27.3926158,21.4513404 28,21.8026932 L28,7 Z" fill="#000000" sketch:type="MSShapeGroup"></path></g></svg>