<?xml version="1.0" encoding="utf-8"?>
<!-- Generator: Adobe Illustrator 18.1.1, SVG Export Plug-In . SVG Version: 6.00 Build 0)  -->
<svg version="1.1" id="Layer_1" xmlns="http://www.w3.org/2000/svg" xmlns:xlink="http://www.w3.org/1999/xlink" x="0px" y="0px"
	 viewBox="245.2 336.4 120.8 117.8" enable-background="new 245.2 336.4 120.8 117.8" xml:space="preserve">
<g>
	<path fill-rule="evenodd" clip-rule="evenodd" fill="#181616" d="M305.6,336.4c-33.3,0-60.4,27-60.4,60.4
		c0,26.7,17.3,49.3,41.3,57.3c3,0.6,4.1-1.3,4.1-2.9c0-1.4-0.1-6.2-0.1-11.2c-16.8,3.7-20.3-7.1-20.3-7.1c-2.7-7-6.7-8.8-6.7-8.8
		c-5.5-3.7,0.4-3.7,0.4-3.7c6.1,0.4,9.3,6.2,9.3,6.2c5.4,9.2,14.1,6.6,17.6,5c0.5-3.9,2.1-6.6,3.8-8.1c-13.4-1.5-27.5-6.7-27.5-29.8
		c0-6.6,2.4-12,6.2-16.2c-0.6-1.5-2.7-7.7,0.6-16c0,0,5.1-1.6,16.6,6.2c4.8-1.3,10-2,15.1-2c5.1,0,10.3,0.7,15.1,2
		c11.5-7.8,16.6-6.2,16.6-6.2c3.3,8.3,1.2,14.5,0.6,16c3.9,4.2,6.2,9.6,6.2,16.2c0,23.2-14.1,28.3-27.6,29.8
		c2.2,1.9,4.1,5.5,4.1,11.2c0,8.1-0.1,14.6-0.1,16.6c0,1.6,1.1,3.5,4.1,2.9c24-8,41.3-30.6,41.3-57.3
		C366,363.5,339,336.4,305.6,336.4z"/>
	<path fill="#181616" d="M268.1,423.1c-0.1,0.3-0.6,0.4-1,0.2c-0.4-0.2-0.7-0.6-0.5-0.9c0.1-0.3,0.6-0.4,1-0.2
		C268,422.4,268.2,422.8,268.1,423.1L268.1,423.1z M267.3,422.6"/>
	<path fill="#181616" d="M270.5,425.9c-0.3,0.3-0.9,0.1-1.2-0.3c-0.4-0.4-0.5-1-0.2-1.3c0.3-0.3,0.8-0.1,1.2,0.3
		C270.8,425,270.8,425.6,270.5,425.9L270.5,425.9z M270,425.2"/>
	<path fill="#181616" d="M272.9,429.3c-0.4,0.3-1,0-1.3-0.5c-0.4-0.5-0.4-1.2,0-1.4c0.4-0.3,1,0,1.3,0.5
		C273.3,428.4,273.3,429.1,272.9,429.3L272.9,429.3z M272.9,429.3"/>
	<path fill="#181616" d="M276.2,432.7c-0.3,0.4-1,0.3-1.6-0.2c-0.5-0.5-0.7-1.2-0.3-1.5c0.3-0.4,1-0.3,1.6,0.2
		C276.4,431.6,276.5,432.3,276.2,432.7L276.2,432.7z M276.2,432.7"/>
	<path fill="#181616" d="M280.7,434.7c-0.1,0.5-0.8,0.7-1.5,0.5c-0.7-0.2-1.1-0.8-1-1.2c0.1-0.5,0.8-0.7,1.5-0.5
		C280.4,433.6,280.8,434.2,280.7,434.7L280.7,434.7z M280.7,434.7"/>
	<path fill="#181616" d="M285.6,435c0,0.5-0.6,0.9-1.3,0.9c-0.7,0-1.3-0.4-1.3-0.9c0-0.5,0.6-0.9,1.3-0.9
		C285,434.1,285.6,434.5,285.6,435L285.6,435z M285.6,435"/>
	<path fill="#181616" d="M290.2,434.2c0.1,0.5-0.4,1-1.1,1.1c-0.7,0.1-1.3-0.2-1.4-0.7c-0.1-0.5,0.4-1,1.1-1.1
		C289.5,433.4,290.1,433.7,290.2,434.2L290.2,434.2z M290.2,434.2"/>
</g>
</svg>
