<?xml version="1.0" encoding="utf-8"?>
<!-- Generator: Adobe Illustrator 18.1.1, SVG Export Plug-In . SVG Version: 6.00 Build 0)  -->
<svg version="1.1" id="Layer_1" xmlns="http://www.w3.org/2000/svg" xmlns:xlink="http://www.w3.org/1999/xlink" x="0px" y="0px"
	 viewBox="0 0 612 792" enable-background="new 0 0 612 792" xml:space="preserve">
<g>
	<path d="M82.4,514.7c0,0-60,10.6-95.1,93.8c0,0,33.2-8.9,45.7-23.2c0,0-44,50.1-55.7,77.8c0,0,40.3-2.6,90.6-59.8
		c0,0-18.9,21.5-17.1,48.3c0,0,84.3-52.7,74.6-99.2L82.4,514.7z"/>
	<path d="M-22.7,666.6c-1.1,0-2.1-0.5-2.8-1.4c-0.7-1-0.8-2.2-0.4-3.3c7.3-17.3,26.4-42.6,40.4-59.8c-12.7,6.1-25.5,9.6-26.4,9.8
		c-1.3,0.3-2.6-0.1-3.5-1.1c-0.9-1-1.1-2.4-0.6-3.6c35.4-84,95.2-95.4,97.7-95.9c1-0.2,2.1,0.1,2.9,0.8l42.9,37.7
		c0.6,0.5,0.9,1.1,1.1,1.9c10.1,48.4-72.6,100.7-76.1,102.9c-1,0.6-2.3,0.7-3.4,0.1c-1.1-0.6-1.8-1.6-1.9-2.8
		c-0.6-9.8,1.3-18.9,4.1-26.7C10,664-21,666.5-22.4,666.6C-22.5,666.6-22.6,666.6-22.7,666.6z M33,581.9c0.8,0,1.6,0.3,2.3,0.9
		c1.4,1.2,1.6,3.4,0.3,4.8c-0.4,0.5-37.9,43.3-52.3,71c12.9-3.2,44.8-15.1,82-57.5c0,0,0,0,0,0c1.3-1.4,3.4-1.6,4.8-0.3
		c1.4,1.2,1.6,3.4,0.3,4.8c0,0,0,0,0,0l0,0c-0.3,0.3-15.1,17.6-16.3,39.7c17.8-12.1,74.5-54.2,68-91.1l-40.7-35.8
		c-9.2,2.3-57.1,17.5-88,84.6c10.2-3.4,28.7-10.5,37-20C31.1,582.4,32.1,581.9,33,581.9z"/>
</g>
<path d="M453,154.8c-62.1-55.6-157.8-50.4-213.5,11.6c-3.6,4-3.2,10.1,0.7,13.7c4,3.6,10.1,3.2,13.7-0.8
	c48.5-54.1,132-58.6,186.1-10.1c4,3.6,10.1,3.3,13.7-0.7C457.3,164.5,457,158.4,453,154.8z"/>
<path d="M487.8,110.3c-85.6-76.7-217.6-69.5-294.3,16c-48.4,54-65.1,128.9-44.8,198l-25.4,28.4c-7.4,8.3-6.7,21,1.5,28.4
	l133.2,119.4c4,3.6,9.2,5.4,14.5,5.1c5.3-0.3,10.3-2.7,13.9-6.7l25.4-28.3c70.9,12.7,143.5-12,192-66
	C580.6,319,573.4,187,487.8,110.3z M309.4,429c-7.2-1.7-14.7,0.6-19.7,6.1l-19.7,22l-103.2-92.6l19.7-22c4.9-5.5,6.4-13.2,4-20.2
	c-20.9-58.3-8.2-123.1,33.1-169.1c61.9-69,168.4-74.9,237.4-12.9c69,61.9,74.8,168.4,12.9,237.4C432.6,423.7,369.6,443.4,309.4,429z
	"/>
<path d="M221.3,541.5L88.1,422.1c-8.3-7.4-21-6.7-28.4,1.5c-7.4,8.3-6.7,21,1.6,28.4l30,26.9c-6.8,8.3-6,20.4,2,27.6l43.6,39.1
	c8,7.2,20.1,6.6,27.6-1l30,26.9c8.3,7.4,21,6.7,28.4-1.5C230.3,561.7,229.6,549,221.3,541.5z"/>
<path d="M252.8,506.4L119.6,386.9c-8.3-7.4-21-6.7-28.4,1.5c-7.4,8.3-6.7,21,1.5,28.4L226,536.4c8.3,7.4,21,6.7,28.4-1.5
	C261.8,526.5,261.1,513.8,252.8,506.4z"/>
</svg>
