<?xml version="1.0" encoding="utf-8"?>
<!-- Generator: Adobe Illustrator 19.2.0, SVG Export Plug-In . SVG Version: 6.00 Build 0)  -->
<svg version="1.1" id="Layer_1" xmlns="http://www.w3.org/2000/svg" xmlns:xlink="http://www.w3.org/1999/xlink" x="0px" y="0px"
	 viewBox="0 0 96.4 118" style="enable-background:new 0 0 96.4 118;" xml:space="preserve">
<style type="text/css">
	.st0{fill:#FFFFFF;}
	.st1{opacity:0;fill:#FFFFFF;}
</style>
<g>
	<path class="st0" d="M28.2,64.3c0,0,0.4,6.6,6.5,13.7v0c1.3,1.6,6.3,7.1,12.9,7.3c4.9,0.2,9.8-2.5,14.5-7.9l0,0
		c5.6-6.8,6-13.1,6-13.1s3.3,0.6,5.1-7.3c1.8-7.9-1.8-6.1-1.8-6.1c4.8-25-14.7-31.8-14.7-31.8c-3.6-1.1-6.4-1.2-8.5-1
		c-2.1-0.2-5-0.1-8.5,1c0,0-19.5,6.8-14.7,31.8c0,0-3.7-1.8-1.8,6.1C24.9,64.8,28.2,64.3,28.2,64.3z"/>
	<path class="st0" d="M96.3,110c-4-10.7-10.5-12.7-15.6-13.6c-5.1-0.9-17.6-4-18.7-7c-0.4-1-0.5-2.9-0.5-5
		c-4.3,3.6-8.8,5.5-13.4,5.5c-0.3,0-0.5,0-0.8,0c-5.2-0.2-9.5-2.8-12.4-5.2c0,2-0.1,3.8-0.5,4.8c-1.1,2.9-13.6,6.1-18.7,7
		C10.6,97.3,4.2,99.4,0.1,110C-3.9,120.7,100.4,120.7,96.3,110z"/>
</g>
<rect x="24.9" class="st1" width="47.5" height="18"/>
</svg>
