<svg xmlns="http://www.w3.org/2000/svg" xmlns:xlink="http://www.w3.org/1999/xlink" version="1.1" x="0px" y="0px" viewBox="0 0 32 32" enable-background="new 0 0 32 32" xml:space="preserve"><g><path d="M16.277,8.525c-3.897,0-7.069,3.171-7.069,7.068c0,0.25,0.203,0.454,0.453,0.454c0.253,0,0.453-0.203,0.453-0.454   c0-3.397,2.765-6.162,6.163-6.162c0.25,0,0.453-0.202,0.453-0.453C16.73,8.728,16.527,8.525,16.277,8.525z"></path><path d="M30.633,14.276l-2.745,0.001c-0.521,0-0.941,0.422-0.941,0.941c0,0.52,0.422,0.941,0.941,0.941l2.745-0.001   c0.52,0,0.94-0.422,0.94-0.942C31.573,14.697,31.151,14.276,30.633,14.276z"></path><path d="M26.759,4.309c-0.367-0.367-0.964-0.368-1.331,0l-1.939,1.942c-0.367,0.368-0.367,0.964,0.001,1.331   c0.184,0.183,0.425,0.275,0.665,0.275c0.241,0,0.482-0.092,0.666-0.276l1.939-1.942C27.127,5.271,27.127,4.676,26.759,4.309z"></path><path d="M15.645,4.627C15.645,4.627,15.645,4.627,15.645,4.627c0.521,0,0.941-0.422,0.941-0.942l-0.002-2.745   c0-0.52-0.422-0.941-0.941-0.941c0,0,0,0-0.001,0c-0.52,0-0.94,0.422-0.94,0.941l0.002,2.745   C14.703,4.207,15.125,4.627,15.645,4.627z"></path><path d="M6.678,8.085C6.86,8.269,7.102,8.36,7.342,8.36c0.241,0,0.482-0.092,0.667-0.276c0.366-0.368,0.366-0.963-0.002-1.331   L6.064,4.814C5.699,4.447,5.102,4.447,4.733,4.815C4.367,5.183,4.367,5.779,4.735,6.146L6.678,8.085z"></path><path d="M4.111,14.988C4.111,14.988,4.111,14.988,4.111,14.988L1.367,14.99c-0.52,0-0.94,0.422-0.94,0.942s0.422,0.941,0.941,0.941   c0,0,0,0,0.001,0l2.743-0.002c0.52-0.001,0.94-0.423,0.94-0.942C5.053,15.41,4.631,14.988,4.111,14.988z"></path><path d="M16.101,5.887c-5.373,0-9.745,4.372-9.745,9.745c0,3.392,1.757,6.517,4.62,8.29l0.001,1.78   c0,0.521,0.422,0.941,0.941,0.941h8.366c0.25,0,0.489-0.1,0.665-0.276c0.177-0.176,0.276-0.416,0.276-0.666l-0.001-1.778   c2.864-1.772,4.621-4.897,4.621-8.291C25.846,10.259,21.475,5.887,16.101,5.887z M19.836,22.553   c-0.305,0.164-0.494,0.482-0.494,0.828l0.001,1.38h-6.484l-0.001-1.382c0-0.345-0.189-0.662-0.492-0.827   c-2.546-1.378-4.127-4.029-4.127-6.92c0-4.335,3.526-7.862,7.862-7.862c4.335,0,7.862,3.527,7.862,7.862   C23.963,18.523,22.382,21.176,19.836,22.553z"></path><path d="M20.283,29.221h-8.366c-0.521,0-0.941,0.421-0.941,0.941c0,0.519,0.421,0.94,0.941,0.94H13.8   C13.824,31.602,14.228,32,14.731,32h2.736c0.505,0,0.908-0.398,0.932-0.897h1.884c0.521,0,0.941-0.422,0.941-0.94   C21.225,29.642,20.804,29.221,20.283,29.221z"></path><path d="M20.284,27.013h-8.366c-0.521,0-0.941,0.421-0.941,0.941s0.421,0.941,0.941,0.941h8.366c0.521,0,0.941-0.421,0.941-0.941   S20.805,27.013,20.284,27.013z"></path></g></svg>