<?xml version="1.0" encoding="utf-8"?>
<!-- Generator: Adobe Illustrator 18.1.1, SVG Export Plug-In . SVG Version: 6.00 Build 0)  -->
<svg version="1.1" id="Layer_1" xmlns="http://www.w3.org/2000/svg" xmlns:xlink="http://www.w3.org/1999/xlink" x="0px" y="0px"
	 viewBox="93.1 411.2 59.8 59.4" enable-background="new 93.1 411.2 59.8 59.4" xml:space="preserve">
<title>background</title>
<title>Layer 1</title>
<g>
	<g>
		<g>
			<g>
				<path fill="#70CADB" d="M98.2,442.6c-2.2,0-4.1-1.3-4.8-3.4c0-0.1,0-0.2-0.1-0.2c-0.8-2.7,0.7-5.4,3.4-6.3l42.3-14.2
					c0.5-0.1,1-0.2,1.5-0.2c2.3,0,4.2,1.3,4.9,3.5l0.1,0.2c0.8,2.8-1.2,5.2-3.5,6c0,0-0.4,0.1-42.1,14.4
					C99.3,442.5,98.7,442.6,98.2,442.6L98.2,442.6z"/>
			</g>
			<g>
				<path fill="#E01765" d="M105.2,463.4c-2.2,0-4.1-1.3-4.8-3.3c0-0.1-0.1-0.2-0.1-0.2c-0.8-2.7,0.7-5.5,3.3-6.4l42.3-14.3
					c0.5-0.2,1.1-0.3,1.7-0.3c2.3,0,4.2,1.4,4.9,3.4l0.1,0.2c0.4,1.4,0.2,3-0.6,4.3c-0.6,0.9-2.5,1.8-2.5,1.8L107,463.1
					C106.4,463.3,105.8,463.4,105.2,463.4L105.2,463.4z"/>
			</g>
			<g>
				<path fill="#E8A723" d="M140.4,463.5c-2.3,0-4.3-1.4-5-3.5L121.3,418l-0.1-0.2c-0.8-2.7,0.7-5.5,3.3-6.4
					c0.5-0.2,1.1-0.3,1.6-0.3c0.8,0,1.6,0.2,2.3,0.5c1.2,0.6,2.2,1.7,2.6,3l14.1,41.9l0,0.1c0.8,2.8-0.7,5.6-3.3,6.5
					C141.5,463.4,141,463.5,140.4,463.5L140.4,463.5z"/>
			</g>
			<g>
				<path fill="#3EB890" d="M119.4,470.6c-2.3,0-4.3-1.4-5-3.5l-14.1-41.9c0-0.1,0-0.2-0.1-0.2c-0.8-2.7,0.7-5.5,3.3-6.4
					c0.5-0.2,1.1-0.3,1.6-0.3c2.3,0,4.3,1.4,5,3.5l14.1,41.9c0,0.1,0.1,0.2,0.1,0.2c0.8,2.7-0.7,5.5-3.3,6.4
					C120.5,470.5,120,470.6,119.4,470.6L119.4,470.6L119.4,470.6z"/>
			</g>
			<path fill="#CC2027" d="M133.5,454.1l9.8-3.4l-3.2-9.6l-9.9,3.3L133.5,454.1z"/>
			<path fill="#361238" d="M112.5,461.2l9.8-3.4l-3.2-9.6l-9.9,3.3L112.5,461.2z"/>
			<path fill="#65863A" d="M126.5,433.2l9.8-3.4l-3.2-9.4l-9.9,3.3L126.5,433.2z"/>
			<path fill="#1A937D" d="M105.5,440.4l9.8-3.4l-3.2-9.6l-9.9,3.3L105.5,440.4L105.5,440.4z"/>
		</g>
	</g>
</g>
</svg>
