<?xml version="1.0" encoding="utf-8"?>
<!-- Generator: Adobe Illustrator 18.1.1, SVG Export Plug-In . SVG Version: 6.00 Build 0)  -->
<svg version="1.1" id="Layer_1" xmlns="http://www.w3.org/2000/svg" xmlns:xlink="http://www.w3.org/1999/xlink" x="0px" y="0px"
	 viewBox="0 0 612 792" enable-background="new 0 0 612 792" xml:space="preserve">
<path fill="#010101" d="M306.6-0.5C143.6-0.5,11,132,11,295.1C11,398,64.2,492.6,151.2,546.4v53.9c0,15.9,12.9,28.5,28.5,28.5h253.8
	c7.5,0,15-3,20.2-8.4c5.3-5.3,8.4-12.6,8.4-20.2v-53.9c86.8-53.8,140.2-148.6,140.2-251.4C602.2,132,469.6-0.5,306.6-0.5z
	 M419.9,504.8c-9.2,4.9-15,14.5-15,25.1v41.8H208.4v-41.8c0-10.4-5.8-20.2-15-25.1C116.2,463,68.3,382.6,68.3,295.1
	c0-131.4,106.9-238.5,238.5-238.5c131.4,0,238.5,107,238.5,238.5C545.1,382.7,497.1,463.1,419.9,504.8z"/>
<path fill="#010101" d="M433.5,707.1H179.7c-15.9,0-28.5,12.9-28.5,28.5c0,15.6,12.9,28.5,28.5,28.5h57.1
	c0.8,15.2,13,27.3,28.3,27.3h83c15.4,0,27.6-12.1,28.3-27.3h57.1c15.9,0,28.5-12.9,28.5-28.5C462,719.8,449.3,707.1,433.5,707.1z"/>
<path fill="#010101" d="M433.5,640.1H179.7c-15.9,0-28.5,12.9-28.5,28.5c0,15.6,12.9,28.5,28.5,28.5h253.8
	c15.9,0,28.5-12.9,28.5-28.5S449.3,640.1,433.5,640.1z"/>
<g>
	<path fill="#010101" d="M270.4,299.7c-7.8,0-14.5-6.9-14.5-14.5v-48.6c0-7.8,6.9-14.5,14.5-14.5s14.5,6.9,14.5,14.5v48.6
		C285.1,292.8,278.3,299.7,270.4,299.7z"/>
	<path fill="#010101" d="M338.3,299.7c-7.8,0-14.5-6.9-14.5-14.5v-48.6c0-7.8,6.9-14.5,14.5-14.5s14.5,6.9,14.5,14.5v48.6
		C352.9,292.8,346.2,299.7,338.3,299.7z"/>
	<path fill="#010101" d="M270.4,406.3c-6.9,0-12.6-3.8-13.6-10.6c-1.9-7.8,2.9-15.5,10.6-17.4L413,339.5c7.8-1.9,15.5,2.9,17.4,10.6
		c1.9,7.7-2.9,15.5-10.6,17.4l-145.5,38.8C273.3,406.3,271.4,406.3,270.4,406.3z"/>
</g>
</svg>
