<?xml version="1.0" encoding="utf-8"?>
<!-- Generator: Adobe Illustrator 18.1.1, SVG Export Plug-In . SVG Version: 6.00 Build 0)  -->
<svg version="1.1" id="Layer_1" xmlns="http://www.w3.org/2000/svg" xmlns:xlink="http://www.w3.org/1999/xlink" x="0px" y="0px"
	 viewBox="37.8 150.7 537.4 516.5" enable-background="new 37.8 150.7 537.4 516.5" xml:space="preserve">
<g>
	<path d="M210.4,150.7c59.7,22.3,10.3,52,28.6,75.7C202.1,199.2,254.1,174.6,210.4,150.7z"/>
	<path d="M192,176.5c30.1,11.3,5.2,26.2,14.4,38.1C187.8,200.9,214,188.6,192,176.5z"/>
	<path d="M251.9,162.3c41.2,15.4,7.2,35.9,19.8,52.3C246.1,195.8,282,178.9,251.9,162.3z"/>
</g>
<path d="M569.1,369.4h-128c0.4-4.2-0.7-7.6-2.8-8.2c-0.2-0.1-0.5,0-0.7,0c0.9-7.6,0.4-17.2,0.5-17.3c0,0,0.5-4.1-2.7-4.7
	c-0.1,0-0.1,0-0.2,0c-0.1,0-0.1-0.1-0.2-0.1l-4.9-1.3c0.6-5.1-0.1-6.6-1.5-7.1c-0.7-0.3-2.4-0.6-6.2,5l-1.9-0.5
	c0.6-5-0.1-6.6-1.5-7.1c-0.7-0.2-2.4-0.6-6.2,5l-1.9-0.5c0.6-5-0.1-6.6-1.5-7.1c-0.7-0.3-2.4-0.6-6.2,5l-1.9-0.5
	c0.6-5-0.1-6.6-1.5-7.1c-0.7-0.3-2.4-0.6-6.2,5l-1.9-0.5c0.6-5-0.1-6.6-1.5-7.1c-0.7-0.2-2.4-0.7-6.2,5l-1.7-0.5
	c0.6-5-0.1-6.6-1.5-7.1c-0.7-0.3-2.4-0.8-6.2,5l-1.5-0.4c-0.1-0.9-0.2-1.5-0.2-1.6l-0.5-3.6l-3.5-0.9c-25.2-6.8-52.7-35.5-57.8-42.6
	c-0.8-1.1-19.4-26.6-44.7-33.4c-44.2-12-89.9,14.2-101.9,58.4c-6.9,25.3-1.2,51.2,13.3,70.9H44c-3.4,0-6.2,2.8-6.2,6.2
	c0,3.4,2.8,6.2,6.2,6.2c4.6,0,8.4,3.8,8.4,8.4c0,10.5,8.5,19,19,19h97.1c-0.5,0.3-1.1,0.6-1.6,1c0,0,109.7,55.6,163.1,148.8
	c17-3.8,50.3-9.1,87.7-2.3c8.3-35.2-7-69.9-7-82c0-12.4,3.5-41.7,38.1-65.4h92.8c10.5,0,19-8.5,19-19c0-4.6,3.8-8.4,8.4-8.4
	c3.4,0,6.2-2.7,6.2-6.2C575.2,372.2,572.5,369.4,569.1,369.4z M388.8,334.6L388.8,334.6c0.8,0.2,1.5,0.4,2.3,0.6l0,0
	c-5.3,17.1-13.3,27.8-19.7,34.3h-1.5C376.5,362.1,383.8,350.9,388.8,334.6z M398.4,337.2l0.1,0c0.7,0.2,1.4,0.4,2.1,0.6l0,0
	c-4.6,14.9-11.3,25-17.3,31.7h-1.7C387.7,362.1,394,351.7,398.4,337.2z M408.1,339.8L408.1,339.8c0.8,0.2,1.5,0.4,2.3,0.6l0,0
	c-4.1,13.1-9.7,22.5-15,29.1h-1.9C398.7,362.3,404.1,352.7,408.1,339.8z M417.7,342.4l0.1,0c0.7,0.2,1.4,0.4,2.1,0.6l0,0
	c-3.5,11.5-8.3,20-13,26.4h-2C409.6,362.6,414.2,353.8,417.7,342.4z M370.3,354.5c0.2-0.9,0.4-1.7,0.6-2.6c2.4-3.7,6-10.3,8.4-19.9
	h0c0.7,0.2,1.3,0.4,2.1,0.6c-3.3,10.8-7.7,19-12.2,25.3C369.7,356.8,370,355.6,370.3,354.5z M172.6,320.3c0-6.2,0.8-12.6,2.5-18.9
	c10.4-38.4,50.1-61.1,88.5-50.7c21.5,5.8,38.5,29.1,38.7,29.3c3.9,5.4,31,35.6,60.1,45.4c0.1,1.4,0.2,3,0.2,5.1
	c0,5.5-0.5,13.1-2.7,21.1c-1.9,7.1-4.8,13.2-7.4,17.8H192C179.7,356.3,172.6,338.7,172.6,320.3z M198.4,409.1h25.8
	c-0.9,0.3-1.8,0.6-2.6,1c0,0,5.4,4.8,13.9,13.3C222.1,417.3,209.4,412.1,198.4,409.1z M236.5,409.1h19.1c1.9,2.6,5.8,8.2,11.2,16.3
	C256,417.3,245.6,411.2,236.5,409.1z M271.6,409.1h31.7c0.4,5.5,1.3,15.4,3.4,28.6C294.5,424.6,282.5,413.9,271.6,409.1z
	 M370.4,465.7c-3.7,9.4-14.8,10-30.1,5.7c-9-26.9-14.8-51.9-25-62.3h96.6C398.3,416.7,383.3,432.9,370.4,465.7z M418.4,369.4h-2.1
	c4.1-6.4,8-14.5,11.1-24.4c0.9,0.3,1.7,0.5,2.3,0.6C426.5,355.6,422.5,363.4,418.4,369.4z"/>
<path d="M306.5,586v81.2h137V586C380.4,566.4,306.5,586,306.5,586z M337.6,628.6c-6.3,0-11.5-5.1-11.5-11.5s5.1-11.5,11.5-11.5
	c6.3,0,11.5,5.1,11.5,11.5S344,628.6,337.6,628.6z"/>
</svg>
