<svg xmlns="http://www.w3.org/2000/svg" xmlns:xlink="http://www.w3.org/1999/xlink" version="1.1" x="0px" y="0px" viewBox="0 0 100 100" enable-background="new 0 0 100 100" xml:space="preserve"><g><path d="M34.379,9.916c9.756,3.651,1.691,8.493,4.68,12.367C33.023,17.84,41.516,13.825,34.379,9.916z"></path><path d="M31.375,14.136c4.915,1.839,0.853,4.277,2.357,6.228C30.693,18.127,34.97,16.104,31.375,14.136z"></path><path d="M41.152,11.819c6.74,2.523,1.169,5.868,3.232,8.545C40.213,17.295,46.083,14.521,41.152,11.819z"></path></g><path d="M92.984,45.661H72.073c0.059-0.692-0.111-1.241-0.462-1.337c-0.038-0.01-0.076-0.007-0.115-0.007  c0.152-1.249,0.07-2.803,0.074-2.819c0,0,0.076-0.673-0.437-0.764c-0.01-0.002-0.02,0-0.029-0.002  c-0.013-0.004-0.021-0.012-0.034-0.015l-0.796-0.216c0.099-0.826-0.018-1.08-0.249-1.162c-0.118-0.042-0.396-0.103-1.008,0.821  l-0.316-0.086c0.098-0.819-0.016-1.08-0.246-1.162c-0.116-0.04-0.394-0.105-1.008,0.822l-0.316-0.086  c0.098-0.82-0.016-1.08-0.246-1.162c-0.116-0.041-0.395-0.105-1.009,0.821l-0.316-0.086c0.098-0.819-0.016-1.08-0.246-1.162  c-0.117-0.042-0.395-0.105-1.009,0.822l-0.316-0.086c0.098-0.82-0.016-1.081-0.246-1.163c-0.117-0.04-0.395-0.108-1.01,0.822  l-0.28-0.076c0.098-0.82-0.016-1.081-0.246-1.163c-0.118-0.041-0.394-0.125-1.016,0.82l-0.237-0.065  c-0.015-0.15-0.026-0.245-0.029-0.264l-0.082-0.583l-0.568-0.153c-4.116-1.119-8.604-5.803-9.441-6.96  c-0.128-0.177-3.177-4.344-7.301-5.464c-7.218-1.96-14.685,2.316-16.646,9.536c-1.124,4.142-0.188,8.36,2.173,11.578H7.187  c-0.556,0-1.006,0.45-1.006,1.006c0,0.556,0.45,1.005,1.006,1.005c0.757,0,1.369,0.614,1.369,1.369c0,1.713,1.389,3.102,3.102,3.102  H27.53c-0.087,0.051-0.178,0.101-0.258,0.161c0,0,17.918,9.093,26.648,24.312c2.774-0.629,8.223-1.48,14.331-0.376  c1.351-5.747-1.136-11.422-1.136-13.403c0-2.021,0.569-6.819,6.231-10.694h15.167c1.713,0,3.101-1.389,3.101-3.102  c0-0.755,0.613-1.369,1.369-1.369c0.557,0,1.007-0.449,1.007-1.005C93.991,46.111,93.541,45.661,92.984,45.661z M63.535,39.96  l0.001,0c0.122,0.033,0.245,0.066,0.37,0.1l0,0c-0.863,2.787-2.169,4.549-3.226,5.601h-0.243  C61.519,44.461,62.714,42.638,63.535,39.96z M65.106,40.387l0.02,0.004c0.117,0.032,0.234,0.065,0.35,0.096h0  c-0.756,2.441-1.851,4.093-2.822,5.174h-0.28C63.352,44.468,64.375,42.765,65.106,40.387z M66.676,40.813l0.005,0.001  c0.122,0.033,0.243,0.065,0.364,0.099l0.002,0.001c-0.663,2.14-1.587,3.672-2.459,4.747h-0.31  C65.152,44.498,66.03,42.922,66.676,40.813z M68.246,41.24l0.022,0.005c0.118,0.032,0.233,0.063,0.343,0.093l0.006,0.003  c-0.58,1.872-1.36,3.276-2.129,4.32h-0.332C66.924,44.548,67.676,43.102,68.246,41.24z M60.512,43.214  c0.038-0.142,0.073-0.282,0.106-0.423c0.396-0.605,0.982-1.686,1.38-3.248l0.001,0c0.108,0.029,0.22,0.059,0.337,0.091  c-0.545,1.76-1.265,3.111-1.989,4.135C60.404,43.587,60.461,43.403,60.512,43.214z M28.198,37.634c0-1.02,0.134-2.055,0.413-3.084  c1.702-6.267,8.185-9.982,14.453-8.279c3.506,0.952,6.293,4.749,6.321,4.788c0.644,0.89,5.067,5.816,9.814,7.413  c0.013,0.221,0.026,0.492,0.026,0.83c0,0.896-0.085,2.144-0.438,3.443c-0.314,1.16-0.789,2.165-1.208,2.916H31.37  C29.369,43.507,28.198,40.643,28.198,37.634z M32.416,52.142h4.22c-0.148,0.043-0.292,0.095-0.431,0.161  c0,0,0.876,0.778,2.274,2.174C36.291,53.473,34.218,52.633,32.416,52.142z M38.645,52.142h3.123  c0.306,0.431,0.947,1.344,1.833,2.667C41.823,53.476,40.127,52.486,38.645,52.142z M44.384,52.142h5.178  c0.065,0.903,0.212,2.524,0.548,4.672C48.122,54.677,46.155,52.926,44.384,52.142z M60.528,61.385  c-0.604,1.542-2.417,1.64-4.914,0.938c-1.477-4.397-2.414-8.488-4.09-10.18h15.784C65.08,53.386,62.625,56.035,60.528,61.385z   M68.36,45.661h-0.351c0.668-1.051,1.309-2.362,1.809-3.994c0.153,0.041,0.278,0.074,0.371,0.1  C69.684,43.395,69.028,44.669,68.36,45.661z"></path><path d="M50.075,81.038v13.271H72.46V81.038C62.157,77.835,50.075,81.038,50.075,81.038z M55.167,88.003  c-1.036,0-1.875-0.839-1.875-1.875s0.839-1.875,1.875-1.875c1.036,0,1.875,0.839,1.875,1.875S56.202,88.003,55.167,88.003z"></path></svg>