<?xml version="1.0" encoding="utf-8"?>
<!-- Generator: Adobe Illustrator 18.1.1, SVG Export Plug-In . SVG Version: 6.00 Build 0)  -->
<svg version="1.1" id="Layer_1" xmlns="http://www.w3.org/2000/svg" xmlns:xlink="http://www.w3.org/1999/xlink" x="0px" y="0px"
	 viewBox="221.1 726.6 42 54.8" enable-background="new 221.1 726.6 42 54.8" xml:space="preserve">
<g>
	<path fill="#FFFFFF" d="M238.7,759.7l-17.7-33.1h8l10.5,20.9c0.2,0.4,0.4,0.8,0.6,1.1c0.2,0.4,0.4,0.8,0.6,1.3
		c0.2,0.2,0.2,0.4,0.2,0.4c0,0.2,0.2,0.2,0.2,0.4c0.2,0.6,0.6,1.1,0.8,1.5c0.2,0.6,0.4,1,0.6,1.3c0.4-1,1-1.9,1.3-2.9
		c0.6-1,1-2.1,1.5-3.2l10.5-20.9h7.4l-17.9,33.5v21.3h-6.8v-21.7H238.7z"/>
</g>
</svg>
